<?xml version="1.0" standalone="no"?>
<!DOCTYPE svg PUBLIC "-//W3C//DTD SVG 20010904//EN"
 "http://www.w3.org/TR/2001/REC-SVG-20010904/DTD/svg10.dtd">
<svg version="1.0" xmlns="http://www.w3.org/2000/svg"
 width="500.000000pt" height="889.000000pt" viewBox="0 0 500.000000 889.000000"
 preserveAspectRatio="xMidYMid meet">

<g transform="translate(0.000000,889.000000) scale(0.100000,-0.100000)"
fill="#000000" stroke="none">
<path d="M4592 8266 c-6 -14 -31 -47 -54 -72 -38 -41 -40 -47 -25 -56 16 -9
16 -11 -3 -36 -20 -25 -20 -27 -4 -39 17 -12 16 -14 -4 -36 -12 -13 -22 -26
-22 -30 0 -4 27 -7 60 -7 l60 0 0 -30 c0 -23 4 -30 20 -30 15 0 20 7 20 29 0
24 5 29 31 35 17 3 42 6 55 6 31 0 30 11 -1 40 -29 27 -32 40 -8 40 14 0 13 4
-7 25 -19 20 -21 27 -10 40 10 13 6 22 -26 58 -22 23 -46 53 -54 66 l-16 23
-12 -26z"/>
<path d="M411 8222 c-6 -15 -29 -46 -50 -69 -27 -30 -34 -44 -24 -47 18 -7 16
-19 -7 -44 -11 -12 -20 -24 -20 -27 0 -3 9 -5 20 -5 27 0 25 -12 -5 -40 -13
-12 -22 -27 -19 -31 3 -5 30 -6 60 -3 42 5 54 4 55 -7 1 -8 2 -21 3 -29 0 -8
10 -15 21 -15 15 0 20 7 20 25 0 22 6 26 49 32 26 4 51 9 54 12 3 4 -5 18 -19
32 -19 21 -21 27 -9 34 12 7 11 13 -9 34 -21 23 -22 25 -5 34 16 9 15 14 -18
50 -20 22 -44 52 -53 66 -22 33 -30 33 -44 -2z"/>
<path d="M1406 8184 c-3 -9 -6 -21 -5 -27 0 -7 4 -2 9 11 13 31 30 28 43 -8
10 -27 16 -30 54 -30 35 0 43 3 42 18 0 10 -3 12 -6 5 -2 -7 -19 -13 -38 -13
-27 0 -35 5 -45 30 -13 32 -44 40 -54 14z"/>
<path d="M1555 8189 c-11 -16 -1 -19 13 -3 7 8 8 14 3 14 -5 0 -13 -5 -16 -11z"/>
<path d="M1598 8162 c2 -20 11 -43 20 -50 9 -7 19 -34 23 -60 l6 -47 2 43 c1
30 -5 48 -19 62 -11 11 -20 33 -20 49 0 17 -4 32 -8 35 -4 2 -6 -12 -4 -32z"/>
<path d="M2482 8100 c-25 -39 -29 -50 -16 -50 10 0 14 -5 10 -15 -3 -8 -9 -22
-12 -30 -5 -11 1 -15 19 -15 19 0 27 -6 30 -22 l4 -23 8 23 c5 16 15 22 36 22
33 0 36 6 12 32 -14 16 -15 21 -3 28 14 9 8 22 -37 77 l-18 22 -33 -49z"/>
<path d="M1371 8099 c-25 -40 -26 -51 -7 -88 14 -26 54 -52 79 -50 7 0 -4 7
-24 15 -34 14 -59 47 -59 78 0 7 10 25 21 40 12 15 19 30 16 33 -3 3 -15 -10
-26 -28z"/>
<path d="M3540 8094 c0 -3 7 -12 15 -20 16 -17 18 -14 9 10 -6 15 -24 23 -24
10z"/>
<path d="M1430 8066 c0 -9 5 -16 10 -16 6 0 10 4 10 9 0 6 -4 13 -10 16 -5 3
-10 -1 -10 -9z"/>
<path d="M1570 8066 c0 -9 5 -16 10 -16 6 0 10 4 10 9 0 6 -4 13 -10 16 -5 3
-10 -1 -10 -9z"/>
<path d="M1495 8060 c-3 -5 1 -10 9 -10 9 0 16 5 16 10 0 6 -4 10 -9 10 -6 0
-13 -4 -16 -10z"/>
<path d="M3531 8054 c0 -11 3 -14 6 -6 3 7 2 16 -1 19 -3 4 -6 -2 -5 -13z"/>
<path d="M1498 8023 c6 -2 18 -2 25 0 6 3 1 5 -13 5 -14 0 -19 -2 -12 -5z"/>
<path d="M3520 8020 c0 -5 5 -10 11 -10 5 0 7 5 4 10 -3 6 -8 10 -11 10 -2 0
-4 -4 -4 -10z"/>
<path d="M1612 7984 c-13 -9 -53 -19 -90 -24 -51 -6 -57 -8 -26 -9 58 -2 95 7
124 30 30 23 24 25 -8 3z"/>
<path d="M982 7590 c-23 -36 -27 -50 -17 -50 17 0 20 -16 5 -25 -20 -12 -10
-35 15 -35 16 0 25 -6 25 -15 0 -8 5 -15 10 -15 6 0 10 7 10 15 0 10 10 15 30
15 35 0 37 6 13 33 -16 17 -16 20 -2 31 15 10 12 16 -21 53 l-37 43 -31 -50z"/>
<path d="M1965 7510 c-3 -11 -26 -45 -51 -75 -31 -37 -40 -55 -30 -55 21 0 20
-7 -5 -38 l-21 -27 21 -3 c27 -4 26 -8 -6 -46 l-26 -31 61 -3 c58 -3 61 -4 64
-30 5 -41 36 -42 40 0 3 32 4 33 56 36 58 3 64 13 30 49 -19 20 -20 26 -8 33
12 7 11 13 -9 34 -21 23 -22 25 -5 34 17 9 13 16 -34 66 -28 30 -52 60 -52 65
0 19 -18 12 -25 -9z"/>
<path d="M3890 7458 c0 -6 -20 -38 -45 -69 -29 -37 -41 -59 -33 -62 10 -3 9
-12 -4 -35 -22 -37 -22 -42 -3 -42 22 0 19 -10 -12 -42 -24 -25 -25 -28 -7
-29 10 0 39 -1 64 -2 41 -2 45 -4 48 -30 4 -37 36 -33 40 5 3 23 8 26 58 33
30 3 54 10 54 15 0 5 -12 18 -27 29 -26 19 -26 22 -11 31 16 10 16 13 -10 35
-24 21 -25 24 -9 30 26 10 21 21 -28 73 -25 26 -45 52 -45 59 0 7 -7 13 -15
13 -8 0 -15 -5 -15 -12z"/>
<path d="M2911 7379 c-19 -54 -15 -69 19 -69 32 0 40 20 20 50 -8 11 -9 8 -4
-12 5 -24 3 -28 -15 -28 -22 0 -25 10 -15 47 4 13 10 20 15 17 5 -3 6 2 3 10
-8 22 -10 20 -23 -15z"/>
<path d="M406 6956 c-10 -19 -33 -49 -52 -67 -29 -28 -31 -34 -18 -43 13 -10
13 -15 -6 -39 l-22 -27 22 -8 22 -8 -27 -32 -27 -32 61 0 c41 0 61 -4 63 -12
0 -7 1 -20 2 -28 1 -18 40 -20 42 -2 1 6 2 18 3 26 1 9 19 17 51 21 55 8 64
23 28 49 -21 15 -21 17 -7 28 15 10 14 14 -10 34 -25 22 -25 23 -7 37 19 14
18 16 -17 51 -20 20 -44 48 -53 61 -21 33 -26 32 -48 -9z"/>
<path d="M1448 6804 c-11 -11 -10 -26 1 -19 5 3 15 -11 21 -31 7 -19 14 -33
17 -31 2 3 -4 24 -14 47 -10 23 -21 38 -25 34z"/>
<path d="M1429 6747 c-7 -30 8 -44 33 -34 8 4 7 6 -4 6 -10 1 -18 11 -20 29
l-3 27 -6 -28z"/>
<path d="M3313 6643 c-7 -2 -13 -10 -13 -16 0 -8 4 -7 12 1 19 19 27 14 36
-20 7 -29 13 -33 43 -34 26 -2 28 -1 6 3 -20 3 -31 14 -42 39 -14 34 -19 37
-42 27z"/>
<path d="M3456 6641 c-15 -24 -25 -61 -16 -61 6 0 10 8 10 19 0 23 25 45 41
35 8 -4 9 -3 5 4 -8 14 -32 16 -40 3z"/>
<path d="M4617 6602 c-22 -35 -25 -47 -15 -53 10 -7 11 -12 1 -29 -18 -27 -17
-30 12 -30 18 0 25 -5 25 -20 0 -11 5 -20 10 -20 6 0 10 9 10 20 0 16 7 20 30
20 34 0 37 6 13 32 -15 17 -15 19 0 31 14 11 12 17 -21 53 l-37 41 -28 -45z"/>
<path d="M2501 6577 c-36 -52 -37 -57 -15 -57 15 0 15 -2 0 -25 -21 -32 -20
-35 9 -35 16 0 25 -6 25 -15 0 -8 5 -15 10 -15 6 0 10 7 10 15 0 10 10 15 30
15 34 0 36 6 14 38 -14 20 -14 23 1 28 14 6 13 10 -8 33 -13 14 -29 34 -34 45
-9 17 -13 14 -42 -27z"/>
<path d="M3499 6593 c-4 -26 -2 -34 13 -39 10 -3 18 -10 18 -16 0 -6 3 -8 7
-5 3 4 -1 15 -9 24 -9 10 -18 29 -20 43 -3 23 -4 22 -9 -7z"/>
<path d="M3291 6598 c0 -10 -10 -32 -21 -50 -34 -56 -23 -106 30 -133 16 -8
39 -15 52 -14 15 0 8 5 -20 14 -48 15 -71 38 -72 73 0 25 17 63 32 73 6 4 8
17 5 30 -2 14 -5 17 -6 7z"/>
<path d="M3320 6511 c0 -6 5 -13 10 -16 6 -3 10 1 10 9 0 9 -4 16 -10 16 -5 0
-10 -4 -10 -9z"/>
<path d="M3462 6511 c4 -13 18 -16 19 -4 0 4 -5 9 -11 12 -7 2 -11 -2 -8 -8z"/>
<path d="M3540 6492 c0 -15 -7 -39 -16 -52 l-16 -25 21 24 c18 20 30 81 16 81
-3 0 -5 -12 -5 -28z"/>
<path d="M3448 6403 c7 -3 16 -2 19 1 4 3 -2 6 -13 5 -11 0 -14 -3 -6 -6z"/>
<path d="M4080 6214 c0 -8 4 -13 9 -10 5 3 14 -7 19 -23 10 -29 9 -30 -21 -34
-31 -4 -30 -4 6 -5 20 -1 37 0 37 3 0 2 -7 23 -16 45 -16 40 -34 53 -34 24z"/>
<path d="M4071 6174 c0 -11 3 -14 6 -6 3 7 2 16 -1 19 -3 4 -6 -2 -5 -13z"/>
<path d="M988 6133 c-14 -21 -38 -51 -54 -66 -26 -26 -27 -30 -11 -38 16 -10
16 -12 -3 -39 -24 -34 -25 -40 -5 -40 21 0 19 -13 -5 -35 -32 -29 -24 -35 40
-35 l60 0 0 -30 c0 -23 4 -30 20 -30 15 0 20 7 20 29 0 28 2 30 55 36 30 4 55
11 55 14 0 4 -11 18 -26 32 -22 20 -23 25 -10 35 14 9 12 14 -9 34 -23 21 -23
24 -8 36 16 11 13 17 -30 63 -26 27 -47 55 -47 61 0 21 -18 9 -42 -27z"/>
<path d="M1818 5908 c-19 -29 -23 -45 -16 -50 9 -5 9 -13 0 -33 -16 -35 -15
-38 9 -32 15 4 23 0 26 -14 6 -22 23 -26 23 -4 0 8 8 15 18 15 9 0 24 4 32 10
12 8 12 11 -3 28 -21 23 -22 32 -2 32 11 0 7 12 -17 45 -18 24 -35 44 -38 45
-3 0 -17 -19 -32 -42z"/>
<path d="M2790 5790 c0 -5 -20 -34 -45 -65 -30 -36 -40 -55 -30 -55 21 0 19
-13 -6 -36 -19 -17 -19 -19 -3 -31 17 -12 16 -14 -6 -38 l-23 -25 56 0 c53 0
57 -2 57 -23 0 -13 3 -26 6 -30 12 -12 34 6 34 28 0 19 7 24 45 29 50 8 54 15
25 41 -14 13 -17 22 -10 29 6 6 4 16 -7 28 -13 15 -14 20 -3 33 11 14 7 22
-28 58 -23 24 -42 48 -42 55 0 7 -4 12 -10 12 -5 0 -10 -4 -10 -10z"/>
<path d="M252 5605 c-22 -32 -27 -45 -17 -45 17 0 20 -26 5 -35 -17 -11 -11
-25 11 -25 12 0 23 -8 26 -20 7 -26 19 -26 26 0 3 11 9 20 14 19 4 -1 16 -1
27 0 17 1 18 2 1 27 -13 20 -14 28 -5 34 8 5 4 19 -17 48 -15 23 -31 41 -34
42 -3 0 -19 -20 -37 -45z"/>
<path d="M4288 5503 c-14 -21 -37 -51 -52 -66 -21 -22 -24 -32 -16 -43 9 -10
8 -19 -4 -36 -20 -28 -20 -38 -1 -38 19 0 19 -9 1 -29 -31 -35 -24 -45 34 -45
52 -1 55 -2 58 -28 5 -40 42 -39 42 0 0 27 3 29 58 38 l57 9 -30 28 c-27 26
-28 30 -12 38 15 9 14 12 -11 34 -24 21 -25 24 -9 30 24 10 21 23 -11 53 -15
15 -39 42 -53 60 l-26 33 -25 -38z"/>
<path d="M3495 5399 c-4 -11 -4 -23 -1 -26 3 -4 6 1 6 10 0 10 5 17 10 17 6 0
10 5 10 10 0 18 -19 10 -25 -11z"/>
<path d="M3524 5356 c1 -21 5 -32 13 -29 8 3 9 12 1 34 -13 37 -15 37 -14 -5z"/>
<path d="M3480 5335 c0 -8 4 -15 10 -15 5 0 7 7 4 15 -4 8 -8 15 -10 15 -2 0
-4 -7 -4 -15z"/>
<path d="M1146 5184 c-3 -9 -6 -23 -5 -32 1 -10 4 -6 8 8 10 38 40 38 47 1 6
-29 10 -31 48 -31 38 0 43 3 58 35 8 19 12 35 8 35 -5 0 -13 -13 -19 -30 -8
-25 -15 -30 -43 -30 -28 0 -35 5 -45 30 -12 33 -46 41 -57 14z"/>
<path d="M1340 5132 c0 -7 7 -15 15 -19 9 -3 22 -20 30 -37 12 -24 13 -25 9
-6 -7 28 -54 82 -54 62z"/>
<path d="M1134 5122 c-12 -8 -37 -52 -32 -57 2 -1 13 13 25 31 12 19 21 34 20
34 -1 0 -7 -4 -13 -8z"/>
<path d="M1170 5065 c0 -8 5 -15 10 -15 6 0 10 7 10 15 0 8 -4 15 -10 15 -5 0
-10 -7 -10 -15z"/>
<path d="M1240 5060 c0 -5 5 -10 10 -10 6 0 10 5 10 10 0 6 -4 10 -10 10 -5 0
-10 -4 -10 -10z"/>
<path d="M1310 5060 c0 -5 5 -10 10 -10 6 0 10 5 10 10 0 6 -4 10 -10 10 -5 0
-10 -4 -10 -10z"/>
<path d="M1101 5029 c-1 -15 33 -59 46 -59 4 0 -3 10 -14 23 -11 12 -23 29
-26 37 -5 13 -6 13 -6 -1z"/>
<path d="M1380 5015 c-5 -14 -25 -32 -42 -40 -21 -9 -26 -14 -15 -15 20 0 77
51 77 69 0 19 -10 12 -20 -14z"/>
<path d="M1238 5023 c6 -2 18 -2 25 0 6 3 1 5 -13 5 -14 0 -19 -2 -12 -5z"/>
<path d="M2010 4974 c0 -8 5 -12 10 -9 6 3 10 1 10 -6 0 -7 2 -10 5 -7 8 7 -5
38 -16 38 -5 0 -9 -7 -9 -16z"/>
<path d="M1168 4963 c7 -3 16 -2 19 1 4 3 -2 6 -13 5 -11 0 -14 -3 -6 -6z"/>
<path d="M1223 4953 c15 -2 39 -2 55 0 15 2 2 4 -28 4 -30 0 -43 -2 -27 -4z"/>
<path d="M2001 4934 c0 -11 3 -14 6 -6 3 7 2 16 -1 19 -3 4 -6 -2 -5 -13z"/>
<path d="M2042 4925 c2 -16 -2 -20 -25 -18 -15 1 -25 -2 -22 -8 8 -11 36 -12
54 0 10 7 11 13 2 27 -11 18 -11 18 -9 -1z"/>
<path d="M556 4718 c-10 -18 -34 -49 -53 -69 -30 -32 -33 -38 -19 -46 15 -8
15 -12 -4 -35 -24 -31 -25 -38 -5 -38 20 0 19 -12 -5 -43 -11 -14 -20 -28 -20
-30 0 -3 26 -5 58 -4 55 2 57 1 60 -25 5 -39 39 -39 44 -1 3 25 8 29 51 35 27
4 52 9 55 12 3 4 -7 20 -23 36 -23 24 -25 30 -12 30 23 0 21 17 -3 30 -24 13
-26 36 -3 44 13 5 8 15 -30 53 -26 26 -49 55 -53 65 -8 26 -17 22 -38 -14z"/>
<path d="M2672 4628 c-24 -35 -28 -48 -17 -48 19 0 19 -10 -1 -38 -14 -21 -14
-22 10 -22 19 0 26 -5 26 -20 0 -11 5 -20 10 -20 6 0 10 6 10 14 0 15 21 26
52 26 19 0 19 1 -2 28 -19 23 -20 27 -6 30 21 5 21 5 -17 55 l-33 44 -32 -49z"/>
<path d="M4641 4625 c-26 -36 -29 -45 -16 -45 11 0 15 -5 11 -15 -3 -8 -9 -22
-12 -30 -4 -11 0 -15 16 -15 13 0 24 -8 27 -20 3 -11 9 -20 14 -20 5 0 9 9 9
20 0 16 7 20 30 20 30 0 30 0 14 26 -14 21 -15 27 -4 34 10 6 7 15 -13 40 -15
17 -27 36 -27 41 0 20 -18 7 -49 -36z"/>
<path d="M3715 4529 c-9 -16 -32 -47 -51 -68 -28 -32 -31 -40 -18 -45 14 -5
13 -9 -5 -35 -26 -36 -26 -41 0 -41 19 0 19 -1 -5 -33 -14 -19 -23 -36 -20
-40 3 -3 30 -3 60 0 l54 6 0 -32 c0 -24 4 -31 20 -31 15 0 20 7 20 29 0 27 3
29 55 36 30 3 55 10 55 14 0 4 -11 18 -25 31 -22 21 -23 24 -8 35 15 11 15 14
-5 26 -26 16 -28 34 -6 43 13 5 7 17 -35 61 -28 29 -51 59 -51 64 0 22 -20 10
-35 -20z"/>
<path d="M1662 4209 c-25 -38 -29 -49 -16 -49 10 0 14 -5 10 -15 -3 -8 -9 -22
-12 -30 -5 -11 1 -15 19 -15 19 0 27 -6 30 -22 l4 -23 8 23 c5 16 15 22 36 22
34 0 36 6 12 33 -13 15 -15 21 -5 24 19 7 14 25 -21 64 l-32 37 -33 -49z"/>
<path d="M247 4153 c-4 -3 -7 -11 -7 -17 0 -6 5 -5 12 2 6 6 9 14 7 17 -3 3
-9 2 -12 -2z"/>
<path d="M264 4118 c3 -10 9 -24 12 -32 4 -11 -4 -16 -28 -19 l-33 -4 38 -1
c41 -2 46 8 21 48 -8 14 -13 17 -10 8z"/>
<path d="M231 4104 c0 -11 3 -14 6 -6 3 7 2 16 -1 19 -3 4 -6 -2 -5 -13z"/>
<path d="M2411 3760 c-18 -27 -42 -57 -54 -65 -20 -15 -21 -17 -5 -28 15 -12
15 -15 -3 -37 -23 -30 -24 -40 -4 -40 21 0 19 -13 -5 -35 -32 -29 -24 -35 40
-35 l60 0 0 -30 c0 -23 4 -30 20 -30 15 0 20 7 20 29 0 27 3 29 55 36 30 3 55
10 55 15 0 5 -12 18 -27 30 -26 20 -27 22 -9 32 18 10 18 11 -5 29 -21 16 -22
21 -11 39 12 20 9 26 -32 70 -25 27 -46 54 -46 60 0 22 -18 8 -49 -40z"/>
<path d="M3215 3649 c-4 -6 -4 -13 -1 -16 3 -4 6 -1 6 5 0 26 31 11 37 -18 3
-16 9 -30 13 -30 10 0 1 40 -13 58 -12 15 -34 16 -42 1z"/>
<path d="M3362 3648 c-7 -7 -12 -20 -12 -29 0 -12 -10 -19 -32 -22 l-33 -5 35
2 c28 1 35 6 40 26 4 16 13 25 25 25 16 0 20 -7 21 -32 0 -20 8 -38 18 -46 10
-8 22 -31 26 -53 7 -36 8 -37 9 -8 0 18 -8 42 -19 57 -11 14 -20 34 -20 45 0
48 -30 68 -58 40z"/>
<path d="M4652 3636 c-6 -14 -27 -43 -47 -64 -30 -34 -33 -41 -19 -46 15 -6
15 -9 -5 -29 -25 -27 -27 -37 -6 -37 17 0 20 -16 5 -25 -5 -3 -15 -15 -21 -26
-10 -19 -8 -20 33 -19 66 3 68 2 68 -25 0 -18 5 -25 20 -25 16 0 20 7 20 30 0
29 2 30 43 30 57 0 63 8 30 42 -21 22 -23 28 -10 28 23 0 21 8 -5 31 -22 18
-22 20 -5 30 17 10 14 15 -27 59 -25 27 -46 54 -46 60 0 19 -17 10 -28 -14z"/>
<path d="M990 3612 c0 -6 -19 -34 -41 -62 -32 -40 -38 -54 -28 -61 11 -6 9
-13 -9 -32 l-23 -24 23 -6 22 -6 -28 -30 -29 -30 59 -3 c56 -3 59 -4 62 -31 4
-35 26 -31 30 5 3 23 9 27 53 33 27 4 49 10 49 13 0 3 -10 16 -22 29 -17 18
-19 26 -10 32 9 6 7 12 -8 26 -20 18 -20 20 -4 32 16 11 13 17 -32 65 -52 56
-64 66 -64 50z"/>
<path d="M3201 3607 c0 -11 -10 -30 -21 -44 -11 -14 -20 -33 -19 -42 0 -10 4
-6 10 9 6 13 17 32 25 42 9 9 14 25 11 35 -4 17 -5 17 -6 0z"/>
<path d="M3230 3520 c0 -5 5 -10 10 -10 6 0 10 5 10 10 0 6 -4 10 -10 10 -5 0
-10 -4 -10 -10z"/>
<path d="M3305 3520 c-3 -5 -1 -10 4 -10 6 0 11 5 11 10 0 6 -2 10 -4 10 -3 0
-8 -4 -11 -10z"/>
<path d="M3370 3521 c0 -6 5 -13 10 -16 6 -3 10 1 10 9 0 9 -4 16 -10 16 -5 0
-10 -4 -10 -9z"/>
<path d="M3303 3483 c9 -2 23 -2 30 0 6 3 -1 5 -18 5 -16 0 -22 -2 -12 -5z"/>
<path d="M3180 3455 c24 -29 75 -45 137 -44 l58 2 -73 7 c-53 5 -81 13 -105
30 -23 17 -28 18 -17 5z"/>
<path d="M3436 3453 c-6 -14 -5 -15 5 -6 7 7 10 15 7 18 -3 3 -9 -2 -12 -12z"/>
<path d="M3390 3430 c-8 -5 -10 -10 -5 -10 6 0 17 5 25 10 8 5 11 10 5 10 -5
0 -17 -5 -25 -10z"/>
<path d="M4000 3400 c0 -5 5 -10 11 -10 5 0 7 5 4 10 -3 6 -8 10 -11 10 -2 0
-4 -4 -4 -10z"/>
<path d="M3991 3364 c0 -11 3 -14 6 -6 3 7 2 16 -1 19 -3 4 -6 -2 -5 -13z"/>
<path d="M4030 3338 c0 -21 -36 -25 -43 -5 -3 7 -6 5 -6 -5 -1 -14 7 -18 34
-18 37 0 41 5 25 30 -8 13 -10 12 -10 -2z"/>
<path d="M1685 3019 c-4 -11 -4 -23 -1 -26 3 -4 6 1 6 11 0 9 5 14 10 11 6 -3
10 -2 10 4 0 20 -19 21 -25 0z"/>
<path d="M1716 2978 c5 -24 3 -28 -14 -28 -11 0 -23 8 -25 18 -4 13 -5 11 -6
-5 -1 -19 4 -23 29 -23 32 0 40 20 20 50 -8 11 -9 8 -4 -12z"/>
<path d="M302 2933 c-23 -37 -27 -49 -16 -51 16 -4 19 -18 4 -27 -20 -12 -10
-35 15 -35 16 0 25 -6 25 -15 0 -8 5 -15 10 -15 6 0 10 7 10 15 0 10 10 15 30
15 34 0 37 6 14 32 -14 14 -15 20 -4 33 11 13 8 21 -16 48 -16 18 -31 35 -35
40 -3 4 -19 -14 -37 -40z"/>
<path d="M3041 2826 c-36 -51 -37 -56 -15 -56 15 0 15 -2 0 -25 -21 -32 -20
-35 8 -35 16 0 26 -8 31 -22 l8 -23 4 23 c3 17 11 22 34 22 32 0 39 19 14 40
-13 11 -13 14 -1 24 12 9 9 18 -19 54 l-34 43 -30 -45z"/>
<path d="M4666 2614 c-4 -9 -4 -19 -1 -22 3 -3 5 1 5 9 1 8 7 3 16 -11 l15
-25 -7 25 c-9 35 -20 44 -28 24z"/>
<path d="M4651 2553 c-1 -19 4 -23 29 -23 22 0 30 5 29 18 0 10 -3 12 -6 5 -7
-19 -41 -16 -46 5 -4 13 -5 11 -6 -5z"/>
<path d="M3877 2458 c-14 -23 -37 -54 -51 -67 -30 -28 -33 -41 -10 -41 13 0
11 -7 -10 -35 -26 -33 -26 -35 -7 -35 26 0 27 -12 1 -35 -36 -32 -25 -44 38
-42 55 2 57 1 60 -25 2 -20 9 -28 23 -28 14 0 19 7 19 30 0 29 2 30 43 30 64
0 75 12 40 44 -23 22 -25 28 -13 36 12 7 11 13 -9 34 -21 22 -22 26 -7 32 22
9 20 18 -12 51 -15 15 -39 43 -53 61 l-26 34 -26 -44z"/>
<path d="M1271 2413 c7 -12 15 -20 18 -17 3 2 -3 12 -13 22 -17 16 -18 16 -5
-5z"/>
<path d="M1126 2407 c3 -10 9 -15 12 -12 3 3 0 11 -7 18 -10 9 -11 8 -5 -6z"/>
<path d="M1229 2390 c-9 -25 -16 -30 -44 -30 -18 0 -36 6 -38 13 -3 7 -6 4 -6
-6 -1 -15 6 -18 41 -15 36 3 43 7 55 36 7 17 11 32 8 32 -4 0 -11 -13 -16 -30z"/>
<path d="M2271 2391 c-7 -15 -30 -45 -51 -66 -36 -35 -38 -39 -22 -51 16 -11
15 -14 -8 -39 l-24 -26 22 -6 c28 -7 28 -14 -4 -44 l-26 -24 64 -5 c60 -5 63
-6 66 -33 4 -37 36 -33 40 5 3 23 9 27 60 34 l57 9 -30 28 c-27 26 -29 30 -13
40 16 11 15 13 -10 34 -26 21 -26 22 -8 36 19 14 18 16 -17 51 -20 20 -44 48
-53 61 -21 32 -29 31 -43 -4z"/>
<path d="M1081 2384 c0 -11 3 -14 6 -6 3 7 2 16 -1 19 -3 4 -6 -2 -5 -13z"/>
<path d="M1281 2363 c-1 -14 7 -26 22 -33 19 -10 20 -9 6 2 -9 8 -19 22 -22
33 -4 18 -5 18 -6 -2z"/>
<path d="M1050 2318 c-11 -18 -20 -39 -20 -46 0 -14 28 -72 34 -72 3 0 12 -3
21 -6 9 -4 2 7 -15 24 -35 36 -37 55 -10 100 11 17 17 32 15 32 -3 0 -14 -15
-25 -32z"/>
<path d="M1322 2290 c0 -14 2 -19 5 -12 2 6 2 18 0 25 -3 6 -5 1 -5 -13z"/>
<path d="M1110 2284 c0 -8 5 -12 10 -9 6 3 10 10 10 16 0 5 -4 9 -10 9 -5 0
-10 -7 -10 -16z"/>
<path d="M1250 2285 c0 -8 5 -15 10 -15 6 0 10 7 10 15 0 8 -4 15 -10 15 -5 0
-10 -7 -10 -15z"/>
<path d="M1175 2280 c3 -5 10 -10 16 -10 5 0 9 5 9 10 0 6 -7 10 -16 10 -8 0
-12 -4 -9 -10z"/>
<path d="M1312 2228 c-10 -30 -10 -31 3 -14 13 17 21 46 12 46 -1 0 -8 -15
-15 -32z"/>
<path d="M1178 2243 c6 -2 18 -2 25 0 6 3 1 5 -13 5 -14 0 -19 -2 -12 -5z"/>
<path d="M1255 2190 c-13 -6 -15 -9 -5 -9 8 0 22 4 30 9 18 12 2 12 -25 0z"/>
<path d="M1118 2183 c7 -3 16 -2 19 1 4 3 -2 6 -13 5 -11 0 -14 -3 -6 -6z"/>
<path d="M1168 2173 c12 -2 32 -2 45 0 12 2 2 4 -23 4 -25 0 -35 -2 -22 -4z"/>
<path d="M377 1907 c-10 -18 -34 -50 -53 -71 -31 -34 -33 -39 -19 -50 15 -11
14 -13 -4 -30 -27 -24 -26 -32 1 -39 l22 -6 -27 -29 c-15 -15 -27 -31 -27 -35
0 -4 27 -7 59 -7 58 0 60 -1 63 -27 5 -42 36 -43 40 -1 3 32 4 33 56 36 58 3
64 12 27 44 -28 25 -32 38 -10 38 21 0 19 9 -7 30 -21 17 -22 20 -7 35 15 15
13 19 -15 48 -18 18 -43 47 -57 64 l-24 33 -18 -33z"/>
<path d="M1663 1592 c-23 -35 -27 -48 -17 -50 16 -4 18 -18 4 -27 -20 -12 -10
-35 14 -35 18 0 26 -7 29 -22 l4 -23 8 23 c5 16 15 22 36 22 32 0 35 6 14 34
-11 15 -12 23 -3 33 9 11 5 21 -18 46 -16 18 -31 35 -34 39 -3 4 -20 -14 -37
-40z"/>
<path d="M3180 1630 c0 -5 4 -10 9 -10 5 0 12 -12 15 -26 4 -15 9 -24 12 -22
7 7 -17 68 -27 68 -5 0 -9 -4 -9 -10z"/>
<path d="M3171 1594 c0 -11 3 -14 6 -6 3 7 2 16 -1 19 -3 4 -6 -2 -5 -13z"/>
<path d="M3160 1560 c0 -5 5 -10 11 -10 5 0 7 5 4 10 -3 6 -8 10 -11 10 -2 0
-4 -4 -4 -10z"/>
<path d="M4586 1530 c-31 -46 -31 -50 -10 -50 15 0 15 -2 0 -25 -21 -32 -20
-35 9 -35 18 0 25 -5 25 -20 0 -11 5 -20 10 -20 6 0 10 9 10 20 0 16 7 20 30
20 35 0 36 2 14 35 -15 23 -15 25 0 25 9 0 16 3 16 6 0 8 -64 84 -71 84 -4 0
-18 -18 -33 -40z"/>
<path d="M3198 1553 c6 -2 18 -2 25 0 6 3 1 5 -13 5 -14 0 -19 -2 -12 -5z"/>
<path d="M3766 1261 c-4 -5 3 -7 14 -4 16 4 21 -1 26 -26 6 -29 10 -31 48 -31
38 0 43 3 58 35 8 19 11 32 6 29 -5 -3 -13 -17 -18 -30 -7 -19 -17 -24 -43
-24 -27 0 -35 5 -44 30 -11 29 -36 40 -47 21z"/>
<path d="M3945 1260 c3 -5 8 -10 11 -10 2 0 4 5 4 10 0 6 -5 10 -11 10 -5 0
-7 -4 -4 -10z"/>
<path d="M3751 1222 c0 -13 -10 -35 -21 -49 -11 -14 -20 -30 -20 -36 0 -5 11
7 26 28 14 21 23 47 21 59 -4 19 -4 19 -6 -2z"/>
<path d="M3961 1224 c0 -11 3 -14 6 -6 3 7 2 16 -1 19 -3 4 -6 -2 -5 -13z"/>
<path d="M3971 1177 c13 -13 26 -22 28 -20 7 5 -31 43 -42 43 -6 0 1 -10 14
-23z"/>
<path d="M3786 1141 c-4 -7 -5 -15 -2 -18 9 -9 19 4 14 18 -4 11 -6 11 -12 0z"/>
<path d="M3926 1141 c-4 -7 -5 -15 -2 -18 9 -9 19 4 14 18 -4 11 -6 11 -12 0z"/>
<path d="M3850 1130 c0 -5 5 -10 10 -10 6 0 10 5 10 10 0 6 -4 10 -10 10 -5 0
-10 -4 -10 -10z"/>
<path d="M4001 1123 c0 -12 -4 -30 -7 -40 -5 -17 -5 -17 6 0 6 10 9 28 7 40
-4 22 -4 22 -6 0z"/>
<path d="M2499 1108 c-6 -13 -29 -44 -51 -71 -32 -38 -36 -48 -24 -53 14 -5
13 -10 -4 -34 -24 -34 -25 -40 -5 -40 19 0 19 -9 1 -29 -31 -35 -24 -45 34
-45 52 -1 55 -2 58 -28 5 -41 42 -39 42 1 0 27 3 29 58 37 l57 9 -29 29 c-24
25 -26 30 -12 38 14 8 12 12 -12 33 -24 21 -25 24 -9 30 26 11 21 26 -28 74
-25 25 -45 51 -45 58 0 21 -18 15 -31 -9z"/>
<path d="M3710 1094 c0 -12 37 -54 47 -54 4 0 -4 12 -18 28 -13 15 -25 29 -26
31 -2 2 -3 0 -3 -5z"/>
<path d="M3853 1093 c9 -2 23 -2 30 0 6 3 -1 5 -18 5 -16 0 -22 -2 -12 -5z"/>
<path d="M950 1054 c0 -3 7 -12 15 -20 16 -17 18 -14 9 10 -6 15 -24 23 -24
10z"/>
<path d="M3955 1048 c-11 -7 -49 -15 -85 -18 l-65 -7 55 -1 c35 -1 69 5 95 17
22 11 36 20 30 20 -5 0 -19 -5 -30 -11z"/>
<path d="M3778 1033 c7 -3 16 -2 19 1 4 3 -2 6 -13 5 -11 0 -14 -3 -6 -6z"/>
<path d="M980 996 c0 -14 -6 -17 -25 -14 -14 3 -25 1 -25 -3 0 -5 16 -9 35 -9
37 0 41 5 25 30 -8 13 -10 12 -10 -4z"/>
<path d="M4546 546 c-10 -19 -33 -49 -52 -67 -30 -30 -32 -33 -16 -45 16 -12
15 -14 -5 -36 -29 -30 -29 -38 -2 -38 21 0 21 -1 -5 -35 l-27 -35 60 0 61 0 0
-30 c0 -23 4 -30 20 -30 15 0 20 7 20 29 0 27 3 29 55 36 30 3 55 9 55 13 0 3
-12 18 -27 34 -23 24 -24 28 -9 34 15 6 15 9 -5 30 -22 23 -22 25 -5 37 17 13
16 16 -16 48 -19 19 -43 46 -53 62 -9 15 -20 27 -24 27 -3 0 -15 -15 -25 -34z"/>
<path d="M388 512 c-14 -20 -37 -49 -52 -63 -23 -23 -24 -28 -10 -33 15 -6 15
-8 0 -31 -20 -30 -20 -35 0 -35 13 0 12 -5 -5 -29 -12 -16 -21 -32 -21 -35 0
-3 25 -6 55 -6 52 0 55 -1 55 -25 0 -35 28 -33 32 3 3 25 7 27 51 30 26 2 47
6 47 9 0 4 -10 17 -22 30 -18 19 -20 26 -9 32 11 7 9 13 -9 31 -21 21 -21 23
-5 32 15 9 14 13 -12 42 -16 17 -39 43 -50 58 l-21 28 -24 -38z"/>
<path d="M1548 506 c-32 -50 -34 -56 -12 -56 14 0 14 -2 0 -22 -22 -31 -20
-38 9 -38 18 0 25 -5 25 -20 0 -11 5 -20 10 -20 6 0 10 9 10 20 0 16 7 20 30
20 35 0 36 2 14 35 -15 23 -15 25 0 31 14 5 11 12 -14 40 -16 19 -30 39 -30
44 0 21 -16 8 -42 -34z"/>
<path d="M3272 446 c-36 -50 -38 -56 -17 -56 19 0 19 -5 -1 -35 -16 -24 -16
-25 10 -25 19 0 26 -5 26 -20 0 -11 5 -20 10 -20 6 0 10 9 10 20 0 16 7 20 30
20 34 0 35 2 15 34 -14 21 -14 24 1 30 15 6 14 10 -8 34 -14 15 -30 35 -35 45
-8 15 -13 12 -41 -27z"/>
</g>
</svg>
