<?xml version="1.0" standalone="no"?>
<!DOCTYPE svg PUBLIC "-//W3C//DTD SVG 20010904//EN"
 "http://www.w3.org/TR/2001/REC-SVG-20010904/DTD/svg10.dtd">
<svg version="1.0" xmlns="http://www.w3.org/2000/svg"
 width="800.000000pt" height="257.000000pt" viewBox="0 0 800.000000 257.000000"
 preserveAspectRatio="xMidYMid meet">

<g transform="translate(0.000000,257.000000) scale(0.100000,-0.100000)"
fill="#000000" stroke="none">
<path d="M1590 2481 c0 -11 5 -54 11 -96 l12 -76 31 7 c56 12 70 39 44 87 -6
12 -12 38 -12 57 -1 34 -2 35 -43 38 -37 3 -43 1 -43 -17z m58 0 c19 -11 11
-55 -10 -59 -12 -2 -19 5 -24 22 -9 38 6 55 34 37z m22 -90 c15 -28 13 -39
-11 -51 -25 -14 -26 -14 -34 33 -6 33 -5 37 14 37 11 0 25 -9 31 -19z"/>
<path d="M1925 2468 c-15 -91 -21 -148 -17 -153 3 -3 21 -5 41 -4 l36 1 -29
11 c-28 11 -28 12 -21 72 3 33 9 70 12 83 3 12 1 22 -5 22 -6 0 -14 -15 -17
-32z"/>
<path d="M1320 2420 c-11 -7 -12 -12 -4 -17 17 -12 66 -132 58 -144 -4 -7 3
-9 17 -7 12 1 24 9 27 17 3 8 0 11 -6 7 -11 -6 -69 120 -64 141 3 15 -7 16
-28 3z"/>
<path d="M2200 2368 c-56 -129 -54 -116 -19 -133 17 -9 36 -14 42 -12 7 2 0
10 -15 17 -31 15 -33 19 -17 54 10 21 15 23 35 16 15 -6 24 -6 24 0 0 6 -3 10
-7 10 -25 1 -34 17 -22 43 13 28 25 33 49 18 8 -6 18 -7 23 -4 9 5 -47 41 -64
43 -4 0 -17 -24 -29 -52z"/>
<path d="M1046 2259 l-26 -21 46 -59 c63 -79 68 -83 94 -67 38 24 36 52 -11
113 -24 30 -51 55 -60 55 -9 0 -28 -9 -43 -21z m87 -45 c40 -51 44 -65 23 -83
-11 -10 -23 -1 -60 44 -49 61 -53 70 -33 78 25 11 33 6 70 -39z"/>
<path d="M2480 2225 c-17 -20 -5 -32 15 -15 20 16 45 6 45 -19 0 -24 -18 -34
-88 -51 -28 -6 -55 -17 -59 -23 -3 -6 9 -23 27 -39 40 -33 53 -29 21 6 l-23
25 53 15 c84 25 111 63 71 99 -23 21 -46 22 -62 2z"/>
<path d="M830 2045 c0 -2 27 -23 61 -45 66 -46 79 -64 58 -86 -13 -12 -24 -8
-81 31 -37 25 -70 45 -73 45 -19 0 4 -23 65 -65 68 -47 70 -48 95 -31 43 28
31 63 -40 113 -53 38 -85 52 -85 38z"/>
<path d="M2585 1901 c-7 -12 12 -24 25 -16 11 7 4 25 -10 25 -5 0 -11 -4 -15
-9z"/>
<path d="M1327 1601 c-81 -142 -147 -262 -147 -266 0 -4 66 -124 146 -266
l147 -259 296 0 296 0 148 259 c81 142 147 262 147 266 0 4 -66 123 -147 266
l-147 259 -296 0 -296 0 -147 -259z m468 159 c-115 -38 -215 -70 -221 -70 -10
0 -30 35 -60 108 l-14 32 252 -1 253 0 -210 -69z m-281 -26 l29 -62 -138 -133
c-75 -74 -144 -138 -153 -143 -8 -5 2 22 24 61 165 293 199 351 204 345 3 -4
19 -35 34 -68z m541 54 c8 -35 83 -453 81 -455 -1 -1 -335 202 -486 296 l-55
35 220 72 c121 40 223 73 227 73 4 1 10 -9 13 -21z m156 -239 c75 -134 105
-195 96 -200 -27 -13 -130 -30 -136 -22 -4 4 -22 94 -40 198 -18 105 -35 199
-38 210 -10 36 8 9 118 -186z m-357 -78 c146 -90 266 -167 266 -170 0 -6 -532
-311 -543 -311 -4 0 -7 147 -7 326 0 181 4 324 9 322 5 -1 128 -77 275 -167z
m-304 -158 l0 -318 -101 100 c-55 55 -128 131 -161 168 l-61 68 154 149 c85
82 157 149 162 149 4 1 7 -142 7 -316z m767 0 c-44 -86 -232 -411 -235 -409
-5 6 79 368 89 379 14 17 154 45 146 30z m-231 -256 c-24 -104 -47 -191 -50
-194 -3 -3 -103 19 -222 49 l-217 54 264 151 c145 83 265 145 267 139 1 -6
-18 -96 -42 -199z m-552 -101 c-1 -14 -54 -99 -58 -94 -8 9 -216 379 -216 383
0 3 62 -59 138 -136 75 -78 137 -147 136 -153z m251 -65 l190 -49 -237 -1
-238 -1 31 50 c17 28 38 50 47 50 10 0 103 -23 207 -49z"/>
<path d="M2766 1730 c-68 -26 -79 -40 -67 -74 6 -14 18 -29 27 -33 19 -7 120
26 148 48 18 15 18 19 7 48 -16 37 -41 40 -115 11z m102 -23 c3 -13 -9 -23
-41 -37 -70 -31 -103 -35 -111 -14 -8 22 4 34 57 56 52 21 91 19 95 -5z"/>
<path d="M660 1706 c0 -14 151 -108 159 -100 2 2 -3 12 -12 22 -23 25 -12 62
19 62 45 0 24 17 -28 24 -90 10 -138 8 -138 -8z m120 -24 c0 -10 -3 -21 -6
-25 -5 -5 -74 31 -74 39 0 2 18 4 40 4 32 0 40 -4 40 -18z"/>
<path d="M6534 1649 c-57 -16 -78 -51 -82 -135 l-4 -75 33 3 34 3 5 63 c6 75
22 92 85 92 54 0 82 -21 90 -68 10 -60 -12 -106 -138 -284 -77 -109 -117 -175
-117 -192 l0 -26 160 0 160 0 0 25 0 25 -116 0 c-97 0 -115 2 -111 14 3 8 46
72 95 143 127 181 135 198 130 283 -3 54 -8 74 -26 93 -39 41 -126 57 -198 36z"/>
<path d="M7259 1649 c-21 -6 -48 -22 -60 -36 -24 -25 -24 -26 -24 -278 0 -252
0 -253 24 -278 44 -48 160 -59 232 -22 54 29 59 52 59 300 0 250 -4 271 -61
301 -39 20 -123 26 -170 13z m147 -74 c20 -27 20 -453 0 -480 -21 -28 -114
-33 -146 -7 l-25 20 0 227 0 227 25 20 c32 26 125 21 146 -7z"/>
<path d="M3545 1618 c-3 -13 -34 -150 -69 -305 l-63 -283 32 0 c32 0 33 1 50
70 l17 71 91 -3 91 -3 14 -67 c15 -68 15 -68 48 -68 19 0 34 1 34 3 0 1 -31
137 -69 302 l-68 300 -51 3 c-47 3 -52 1 -57 -20z m114 -305 l19 -83 -74 0
c-57 0 -74 3 -74 14 0 17 58 276 67 296 6 14 20 -37 62 -227z"/>
<path d="M3912 1372 c3 -293 5 -300 65 -339 33 -22 143 -24 190 -4 66 27 68
36 71 339 l3 272 -35 0 -36 0 0 -264 0 -265 -26 -20 c-39 -31 -107 -29 -139 4
l-25 24 0 261 0 260 -36 0 -35 0 3 -268z"/>
<path d="M4420 1335 l0 -305 105 0 c190 0 195 8 195 305 0 297 -5 305 -195
305 l-105 0 0 -305z m213 227 c21 -22 22 -29 22 -227 0 -199 -1 -205 -23 -227
-18 -19 -33 -23 -85 -23 l-62 0 -3 240 c-1 132 0 246 3 253 9 24 120 11 148
-16z"/>
<path d="M4870 1616 c0 -18 6 -25 23 -28 l22 -3 0 -250 0 -250 -22 -3 c-17 -3
-23 -10 -23 -28 0 -23 2 -24 80 -24 78 0 80 1 80 24 0 18 -6 25 -22 28 l-23 3
0 250 0 250 23 3 c16 3 22 10 22 28 0 23 -2 24 -80 24 -78 0 -80 -1 -80 -24z"/>
<path d="M5190 1335 l0 -305 108 0 c157 0 191 25 200 148 6 83 -10 139 -44
154 -28 13 -31 23 -9 32 47 18 59 169 18 224 -32 43 -59 52 -170 52 l-103 0 0
-305z m189 240 c35 -18 41 -32 41 -98 -1 -78 -32 -107 -114 -107 l-46 0 0 110
0 110 45 0 c26 0 59 -7 74 -15z m28 -280 c19 -21 23 -38 23 -90 0 -35 -3 -71
-6 -80 -10 -25 -59 -45 -114 -45 l-50 0 0 126 0 127 62 -6 c51 -5 67 -10 85
-32z"/>
<path d="M5670 1335 l0 -305 120 0 120 0 0 25 c0 25 -1 25 -85 25 l-85 0 0
280 0 280 -35 0 -35 0 0 -305z"/>
<path d="M6030 1335 l0 -305 140 0 140 0 0 25 c0 24 -1 24 -107 27 l-108 3 -3
113 -3 112 86 0 85 0 0 30 0 30 -85 0 -86 0 3 108 3 107 103 3 c101 3 102 3
102 27 l0 25 -135 0 -135 0 0 -305z"/>
<path d="M646 1389 c-46 -36 -26 -110 34 -124 64 -15 108 78 58 125 -28 26
-58 26 -92 -1z"/>
<path d="M2807 1398 c-41 -32 -38 -94 6 -123 72 -47 148 61 81 114 -30 24 -62
27 -87 9z"/>
<path d="M6920 1080 l0 -50 45 0 45 0 0 50 0 50 -45 0 -45 0 0 -50z"/>
<path d="M2710 1040 c-21 -21 -25 -46 -12 -67 5 -7 41 -24 80 -37 72 -25 73
-25 92 -6 43 43 20 74 -83 109 -57 20 -58 20 -77 1z m93 -28 c56 -22 72 -35
64 -56 -8 -22 -35 -20 -101 5 -38 15 -56 27 -56 39 0 35 23 38 93 12z"/>
<path d="M693 1023 c-53 -4 -76 -23 -28 -23 44 0 56 -69 13 -70 -12 0 -10 -20
2 -20 20 0 160 92 160 106 0 14 -22 15 -147 7z m78 -39 c-35 -22 -45 -24 -52
-13 -18 28 -5 36 61 38 l35 1 -44 -26z"/>
<path d="M868 753 c-44 -30 -68 -53 -68 -65 0 -32 19 -58 43 -58 26 0 167 92
150 97 -7 3 -39 -14 -73 -37 -65 -44 -93 -48 -98 -14 -2 16 12 31 63 64 36 23
65 46 65 51 0 15 -13 9 -82 -38z"/>
<path d="M2715 691 c-7 -12 12 -24 25 -16 11 7 4 25 -10 25 -5 0 -11 -4 -15
-9z"/>
<path d="M2406 589 c-11 -17 -12 -27 -4 -45 16 -34 29 -30 22 6 -5 22 -2 31
10 36 30 11 44 -15 51 -92 4 -41 11 -74 15 -74 13 0 70 51 70 62 0 5 -13 0
-29 -11 l-28 -21 -7 38 c-3 20 -6 49 -6 63 0 52 -65 79 -94 38z"/>
<path d="M1078 507 l-57 -72 25 -22 c14 -13 33 -23 43 -23 15 0 79 71 105 117
6 11 -39 74 -52 73 -4 -1 -33 -33 -64 -73z m92 14 c0 -19 -67 -111 -81 -111
-15 0 -39 12 -39 20 0 5 20 33 45 64 45 55 75 65 75 27z"/>
<path d="M2182 443 c-37 -19 -37 -20 12 -125 l31 -66 38 15 c20 8 37 20 37 25
0 6 -8 7 -17 3 -42 -17 -49 -16 -62 11 -11 25 -10 30 11 47 l23 19 -27 -6
c-23 -5 -30 -1 -42 23 -15 28 -15 29 14 41 17 7 30 16 30 21 0 12 -9 10 -48
-8z"/>
<path d="M1379 422 c-1 -4 -1 -10 0 -15 2 -13 -51 -132 -63 -139 -8 -6 -7 -11
4 -18 22 -14 30 -12 30 8 0 24 51 142 62 142 4 0 8 4 8 9 0 10 -39 22 -41 13z"/>
<path d="M1601 285 c-17 -116 -17 -115 29 -115 45 0 61 19 59 72 0 18 2 45 6
59 9 33 -16 59 -54 59 -28 0 -29 -2 -40 -75z m73 39 c6 -16 -9 -54 -22 -54
-21 1 -33 19 -26 43 7 30 38 37 48 11z m-9 -84 c5 -17 -9 -60 -20 -60 -30 0
-43 28 -29 64 9 22 41 20 49 -4z"/>
<path d="M1905 333 c3 -15 9 -57 15 -92 5 -35 11 -66 14 -68 8 -8 66 8 66 18
0 5 -11 7 -25 3 -14 -3 -25 -5 -26 -3 0 2 -6 40 -12 83 -7 45 -17 81 -24 83
-9 3 -11 -4 -8 -24z"/>
</g>
</svg>
